<mxfile host="app.diagrams.net" agent="Mozilla/5.0 (X11; Linux x86_64; rv:132.0) Gecko/20100101 Firefox/132.0" version="24.8.6">
  <diagram name="Page-1" id="2YBvvXClWsGukQMizWep">
    <mxGraphModel dx="2126" dy="1216" grid="1" gridSize="10" guides="1" tooltips="1" connect="1" arrows="1" fold="1" page="1" pageScale="1" pageWidth="850" pageHeight="1100" math="0" shadow="0">
      <root>
        <mxCell id="0" />
        <mxCell id="1" parent="0" />
        <mxCell id="JjkQo1qTZLQn8AvgYDJJ-1" value=":SPP" style="shape=umlLifeline;perimeter=lifelinePerimeter;whiteSpace=wrap;html=1;container=0;dropTarget=0;collapsible=0;recursiveResize=0;outlineConnect=0;portConstraint=eastwest;newEdgeStyle={&quot;edgeStyle&quot;:&quot;elbowEdgeStyle&quot;,&quot;elbow&quot;:&quot;vertical&quot;,&quot;curved&quot;:0,&quot;rounded&quot;:0};" vertex="1" parent="1">
          <mxGeometry x="40" y="40" width="100" height="730" as="geometry" />
        </mxCell>
        <mxCell id="JjkQo1qTZLQn8AvgYDJJ-2" value="" style="html=1;points=[];perimeter=orthogonalPerimeter;outlineConnect=0;targetShapes=umlLifeline;portConstraint=eastwest;newEdgeStyle={&quot;edgeStyle&quot;:&quot;elbowEdgeStyle&quot;,&quot;elbow&quot;:&quot;vertical&quot;,&quot;curved&quot;:0,&quot;rounded&quot;:0};" vertex="1" parent="JjkQo1qTZLQn8AvgYDJJ-1">
          <mxGeometry x="45" y="70" width="10" height="360" as="geometry" />
        </mxCell>
        <mxCell id="JjkQo1qTZLQn8AvgYDJJ-3" value="/getAddresses" style="html=1;verticalAlign=bottom;startArrow=oval;endArrow=block;startSize=8;edgeStyle=elbowEdgeStyle;elbow=vertical;curved=0;rounded=0;" edge="1" parent="JjkQo1qTZLQn8AvgYDJJ-1" target="JjkQo1qTZLQn8AvgYDJJ-2">
          <mxGeometry relative="1" as="geometry">
            <mxPoint x="-82.8" y="70" as="sourcePoint" />
          </mxGeometry>
        </mxCell>
        <mxCell id="JjkQo1qTZLQn8AvgYDJJ-4" value="" style="html=1;points=[[0,0,0,0,5],[0,1,0,0,-5],[1,0,0,0,5],[1,1,0,0,-5]];perimeter=orthogonalPerimeter;outlineConnect=0;targetShapes=umlLifeline;portConstraint=eastwest;newEdgeStyle={&quot;curved&quot;:0,&quot;rounded&quot;:0};" vertex="1" parent="JjkQo1qTZLQn8AvgYDJJ-1">
          <mxGeometry x="50" y="284.65999999999997" width="10" height="30" as="geometry" />
        </mxCell>
        <mxCell id="JjkQo1qTZLQn8AvgYDJJ-38" value="" style="html=1;points=[[0,0,0,0,5],[0,1,0,0,-5],[1,0,0,0,5],[1,1,0,0,-5]];perimeter=orthogonalPerimeter;outlineConnect=0;targetShapes=umlLifeline;portConstraint=eastwest;newEdgeStyle={&quot;curved&quot;:0,&quot;rounded&quot;:0};" vertex="1" parent="JjkQo1qTZLQn8AvgYDJJ-1">
          <mxGeometry x="45" y="500" width="10" height="170" as="geometry" />
        </mxCell>
        <mxCell id="JjkQo1qTZLQn8AvgYDJJ-12" value="If no jolokia auth token in session" style="swimlane;whiteSpace=wrap;html=1;" vertex="1" parent="1">
          <mxGeometry x="50" y="120" width="1050" height="170" as="geometry" />
        </mxCell>
        <mxCell id="JjkQo1qTZLQn8AvgYDJJ-5" value="" style="html=1;points=[[0,0,0,0,5],[0,1,0,0,-5],[1,0,0,0,5],[1,1,0,0,-5]];perimeter=orthogonalPerimeter;outlineConnect=0;targetShapes=umlLifeline;portConstraint=eastwest;newEdgeStyle={&quot;curved&quot;:0,&quot;rounded&quot;:0};" vertex="1" parent="JjkQo1qTZLQn8AvgYDJJ-12">
          <mxGeometry x="40" y="30" width="10" height="120" as="geometry" />
        </mxCell>
        <mxCell id="JjkQo1qTZLQn8AvgYDJJ-6" value="/login + username &amp;amp; password" style="html=1;verticalAlign=bottom;endArrow=block;curved=0;rounded=0;entryX=0;entryY=0;entryDx=0;entryDy=5;entryPerimeter=0;exitX=1;exitY=0;exitDx=0;exitDy=5;exitPerimeter=0;" edge="1" parent="JjkQo1qTZLQn8AvgYDJJ-12">
          <mxGeometry relative="1" as="geometry">
            <mxPoint x="50" y="50" as="sourcePoint" />
            <mxPoint x="455" y="50" as="targetPoint" />
          </mxGeometry>
        </mxCell>
        <mxCell id="JjkQo1qTZLQn8AvgYDJJ-26" value="return jolokia auth token" style="html=1;verticalAlign=bottom;endArrow=open;dashed=1;endSize=8;curved=0;rounded=0;entryX=0.607;entryY=0.985;entryDx=0;entryDy=0;entryPerimeter=0;" edge="1" parent="JjkQo1qTZLQn8AvgYDJJ-12">
          <mxGeometry x="-0.0011" relative="1" as="geometry">
            <mxPoint x="50.00000000000017" y="140.00000000000017" as="targetPoint" />
            <mxPoint x="458.93" y="140.00000000000017" as="sourcePoint" />
            <mxPoint as="offset" />
          </mxGeometry>
        </mxCell>
        <mxCell id="JjkQo1qTZLQn8AvgYDJJ-13" value=":JolokiaApiServer" style="shape=umlLifeline;perimeter=lifelinePerimeter;whiteSpace=wrap;html=1;container=0;dropTarget=0;collapsible=0;recursiveResize=0;outlineConnect=0;portConstraint=eastwest;newEdgeStyle={&quot;edgeStyle&quot;:&quot;elbowEdgeStyle&quot;,&quot;elbow&quot;:&quot;vertical&quot;,&quot;curved&quot;:0,&quot;rounded&quot;:0};" vertex="1" parent="1">
          <mxGeometry x="460" y="40" width="100" height="700" as="geometry" />
        </mxCell>
        <mxCell id="JjkQo1qTZLQn8AvgYDJJ-14" value="" style="html=1;points=[];perimeter=orthogonalPerimeter;outlineConnect=0;targetShapes=umlLifeline;portConstraint=eastwest;newEdgeStyle={&quot;edgeStyle&quot;:&quot;elbowEdgeStyle&quot;,&quot;elbow&quot;:&quot;vertical&quot;,&quot;curved&quot;:0,&quot;rounded&quot;:0};" vertex="1" parent="JjkQo1qTZLQn8AvgYDJJ-13">
          <mxGeometry x="45" y="280" width="15" height="150" as="geometry" />
        </mxCell>
        <mxCell id="JjkQo1qTZLQn8AvgYDJJ-15" value="" style="html=1;points=[[0,0,0,0,5],[0,1,0,0,-5],[1,0,0,0,5],[1,1,0,0,-5]];perimeter=orthogonalPerimeter;outlineConnect=0;targetShapes=umlLifeline;portConstraint=eastwest;newEdgeStyle={&quot;curved&quot;:0,&quot;rounded&quot;:0};" vertex="1" parent="JjkQo1qTZLQn8AvgYDJJ-13">
          <mxGeometry x="55" y="334.65999999999997" width="10" height="70" as="geometry" />
        </mxCell>
        <mxCell id="JjkQo1qTZLQn8AvgYDJJ-16" value="" style="html=1;points=[[0,0,0,0,5],[0,1,0,0,-5],[1,0,0,0,5],[1,1,0,0,-5]];perimeter=orthogonalPerimeter;outlineConnect=0;targetShapes=umlLifeline;portConstraint=eastwest;newEdgeStyle={&quot;curved&quot;:0,&quot;rounded&quot;:0};" vertex="1" parent="JjkQo1qTZLQn8AvgYDJJ-13">
          <mxGeometry x="45" y="110" width="10" height="120" as="geometry" />
        </mxCell>
        <mxCell id="JjkQo1qTZLQn8AvgYDJJ-32" style="edgeStyle=orthogonalEdgeStyle;rounded=0;orthogonalLoop=1;jettySize=auto;html=1;curved=0;" edge="1" parent="JjkQo1qTZLQn8AvgYDJJ-13" source="JjkQo1qTZLQn8AvgYDJJ-16" target="JjkQo1qTZLQn8AvgYDJJ-16">
          <mxGeometry relative="1" as="geometry" />
        </mxCell>
        <mxCell id="JjkQo1qTZLQn8AvgYDJJ-33" value="Associates a certificate to the user from the user &amp;amp; broker to certificate mapping" style="edgeLabel;html=1;align=center;verticalAlign=middle;resizable=0;points=[];" vertex="1" connectable="0" parent="JjkQo1qTZLQn8AvgYDJJ-32">
          <mxGeometry x="-0.154" y="3" relative="1" as="geometry">
            <mxPoint x="202" y="4" as="offset" />
          </mxGeometry>
        </mxCell>
        <mxCell id="JjkQo1qTZLQn8AvgYDJJ-41" value="" style="html=1;points=[[0,0,0,0,5],[0,1,0,0,-5],[1,0,0,0,5],[1,1,0,0,-5]];perimeter=orthogonalPerimeter;outlineConnect=0;targetShapes=umlLifeline;portConstraint=eastwest;newEdgeStyle={&quot;curved&quot;:0,&quot;rounded&quot;:0};" vertex="1" parent="JjkQo1qTZLQn8AvgYDJJ-13">
          <mxGeometry x="45" y="560" width="10" height="80" as="geometry" />
        </mxCell>
        <mxCell id="JjkQo1qTZLQn8AvgYDJJ-17" value=":PodXyz" style="shape=umlLifeline;perimeter=lifelinePerimeter;whiteSpace=wrap;html=1;container=0;dropTarget=0;collapsible=0;recursiveResize=0;outlineConnect=0;portConstraint=eastwest;newEdgeStyle={&quot;edgeStyle&quot;:&quot;elbowEdgeStyle&quot;,&quot;elbow&quot;:&quot;vertical&quot;,&quot;curved&quot;:0,&quot;rounded&quot;:0};" vertex="1" parent="1">
          <mxGeometry x="980" y="40" width="100" height="700" as="geometry" />
        </mxCell>
        <mxCell id="JjkQo1qTZLQn8AvgYDJJ-18" value="" style="html=1;points=[];perimeter=orthogonalPerimeter;outlineConnect=0;targetShapes=umlLifeline;portConstraint=eastwest;newEdgeStyle={&quot;edgeStyle&quot;:&quot;elbowEdgeStyle&quot;,&quot;elbow&quot;:&quot;vertical&quot;,&quot;curved&quot;:0,&quot;rounded&quot;:0};" vertex="1" parent="JjkQo1qTZLQn8AvgYDJJ-17">
          <mxGeometry x="42.5" y="334.65999999999997" width="15" height="60" as="geometry" />
        </mxCell>
        <mxCell id="JjkQo1qTZLQn8AvgYDJJ-19" value="/getAddresses + jolokia auth token" style="html=1;verticalAlign=bottom;endArrow=block;curved=0;rounded=0;exitX=1;exitY=0;exitDx=0;exitDy=5;exitPerimeter=0;" edge="1" parent="1" source="JjkQo1qTZLQn8AvgYDJJ-4">
          <mxGeometry x="-0.008" y="5" relative="1" as="geometry">
            <mxPoint x="20" y="329.65999999999997" as="sourcePoint" />
            <mxPoint x="505" y="329.65999999999997" as="targetPoint" />
            <mxPoint as="offset" />
          </mxGeometry>
        </mxCell>
        <mxCell id="JjkQo1qTZLQn8AvgYDJJ-20" value="return json" style="html=1;verticalAlign=bottom;endArrow=open;dashed=1;endSize=8;curved=0;rounded=0;entryX=1;entryY=1;entryDx=0;entryDy=-5;entryPerimeter=0;" edge="1" parent="1">
          <mxGeometry relative="1" as="geometry">
            <mxPoint x="100" y="454.65999999999997" as="targetPoint" />
            <mxPoint x="505" y="454.65999999999997" as="sourcePoint" />
          </mxGeometry>
        </mxCell>
        <mxCell id="JjkQo1qTZLQn8AvgYDJJ-21" value="return json" style="html=1;verticalAlign=bottom;endArrow=open;dashed=1;endSize=8;curved=0;rounded=0;" edge="1" parent="1" target="JjkQo1qTZLQn8AvgYDJJ-15">
          <mxGeometry relative="1" as="geometry">
            <mxPoint x="680" y="424.65999999999997" as="targetPoint" />
            <mxPoint x="1029.4999999999995" y="424.65999999999997" as="sourcePoint" />
            <Array as="points">
              <mxPoint x="860" y="424.65999999999997" />
            </Array>
          </mxGeometry>
        </mxCell>
        <mxCell id="JjkQo1qTZLQn8AvgYDJJ-22" value="jmx call to get addresses + token from memory" style="html=1;verticalAlign=bottom;endArrow=block;curved=0;rounded=0;" edge="1" parent="1" target="JjkQo1qTZLQn8AvgYDJJ-18" source="JjkQo1qTZLQn8AvgYDJJ-15">
          <mxGeometry x="-0.0013" relative="1" as="geometry">
            <mxPoint x="680" y="334.65999999999997" as="sourcePoint" />
            <mxPoint x="944.5" y="334.65999999999997" as="targetPoint" />
            <mxPoint as="offset" />
            <Array as="points">
              <mxPoint x="570" y="384.65999999999997" />
            </Array>
          </mxGeometry>
        </mxCell>
        <mxCell id="JjkQo1qTZLQn8AvgYDJJ-23" value="Actor" style="shape=umlActor;verticalLabelPosition=bottom;verticalAlign=top;html=1;outlineConnect=0;" vertex="1" parent="1">
          <mxGeometry x="-80" y="70" width="30" height="60" as="geometry" />
        </mxCell>
        <mxCell id="JjkQo1qTZLQn8AvgYDJJ-35" value=":PodXyz2" style="shape=umlLifeline;perimeter=lifelinePerimeter;whiteSpace=wrap;html=1;container=0;dropTarget=0;collapsible=0;recursiveResize=0;outlineConnect=0;portConstraint=eastwest;newEdgeStyle={&quot;edgeStyle&quot;:&quot;elbowEdgeStyle&quot;,&quot;elbow&quot;:&quot;vertical&quot;,&quot;curved&quot;:0,&quot;rounded&quot;:0};" vertex="1" parent="1">
          <mxGeometry x="770" y="550" width="100" height="260" as="geometry" />
        </mxCell>
        <mxCell id="JjkQo1qTZLQn8AvgYDJJ-39" value="" style="html=1;verticalAlign=bottom;labelBackgroundColor=none;endArrow=open;endFill=0;dashed=1;rounded=0;" edge="1" parent="1" source="JjkQo1qTZLQn8AvgYDJJ-38">
          <mxGeometry width="160" relative="1" as="geometry">
            <mxPoint x="120" y="570" as="sourcePoint" />
            <mxPoint x="760" y="560" as="targetPoint" />
          </mxGeometry>
        </mxCell>
        <mxCell id="JjkQo1qTZLQn8AvgYDJJ-40" value="Create new broker pod" style="edgeLabel;html=1;align=center;verticalAlign=middle;resizable=0;points=[];" vertex="1" connectable="0" parent="JjkQo1qTZLQn8AvgYDJJ-39">
          <mxGeometry x="-0.2418" y="1" relative="1" as="geometry">
            <mxPoint as="offset" />
          </mxGeometry>
        </mxCell>
        <mxCell id="JjkQo1qTZLQn8AvgYDJJ-43" style="edgeStyle=orthogonalEdgeStyle;rounded=0;orthogonalLoop=1;jettySize=auto;html=1;curved=0;" edge="1" parent="1" source="JjkQo1qTZLQn8AvgYDJJ-38" target="JjkQo1qTZLQn8AvgYDJJ-41">
          <mxGeometry relative="1" as="geometry">
            <mxPoint x="370" y="625" as="targetPoint" />
            <Array as="points">
              <mxPoint x="300" y="610" />
              <mxPoint x="300" y="610" />
            </Array>
          </mxGeometry>
        </mxCell>
        <mxCell id="JjkQo1qTZLQn8AvgYDJJ-45" value="Updates api server certificates local DB" style="edgeLabel;html=1;align=center;verticalAlign=middle;resizable=0;points=[];" vertex="1" connectable="0" parent="JjkQo1qTZLQn8AvgYDJJ-43">
          <mxGeometry x="-0.0831" relative="1" as="geometry">
            <mxPoint as="offset" />
          </mxGeometry>
        </mxCell>
        <mxCell id="JjkQo1qTZLQn8AvgYDJJ-44" value="return" style="html=1;verticalAlign=bottom;endArrow=open;dashed=1;endSize=8;curved=0;rounded=0;exitX=0;exitY=1;exitDx=0;exitDy=-5;exitPerimeter=0;" edge="1" parent="1" source="JjkQo1qTZLQn8AvgYDJJ-41" target="JjkQo1qTZLQn8AvgYDJJ-38">
          <mxGeometry relative="1" as="geometry">
            <mxPoint x="300" y="679.66" as="sourcePoint" />
            <mxPoint x="220" y="679.66" as="targetPoint" />
          </mxGeometry>
        </mxCell>
        <mxCell id="JjkQo1qTZLQn8AvgYDJJ-47" style="edgeStyle=orthogonalEdgeStyle;rounded=0;orthogonalLoop=1;jettySize=auto;html=1;" edge="1" parent="1" source="JjkQo1qTZLQn8AvgYDJJ-46">
          <mxGeometry relative="1" as="geometry">
            <mxPoint x="450" y="620" as="targetPoint" />
            <Array as="points">
              <mxPoint x="450" y="740" />
              <mxPoint x="450" y="740" />
            </Array>
          </mxGeometry>
        </mxCell>
        <mxCell id="JjkQo1qTZLQn8AvgYDJJ-46" value="When the self provisioning plugin deploys another broker, for every pod of the broker cluster, it needs to update the jolokia api server database with the additional user to certificates mapping." style="shape=note;whiteSpace=wrap;html=1;backgroundOutline=1;darkOpacity=0.05;" vertex="1" parent="1">
          <mxGeometry x="310" y="770" width="440" height="100" as="geometry" />
        </mxCell>
      </root>
    </mxGraphModel>
  </diagram>
</mxfile>
